<?xml version="1.0" encoding="UTF-8" standalone="no"?>
<svg width="509px" height="268px" viewBox="0 0 509 268" version="1.1" xmlns="http://www.w3.org/2000/svg" xmlns:xlink="http://www.w3.org/1999/xlink" xmlns:sketch="http://www.bohemiancoding.com/sketch/ns">
    <!-- Generator: Sketch 3.3.2 (12043) - http://www.bohemiancoding.com/sketch -->
    <g id="Page-1" stroke="none" stroke-width="1" fill="none" fill-rule="evenodd" sketch:type="MSPage">
        <g id="tagline" sketch:type="MSLayerGroup" transform="translate(0.000000, -1.223060)">
            <g id="experience" transform="translate(9.963001, 143.144626)" sketch:type="MSShapeGroup">
                <g id="light" fill="#614F72">
                    <path d="M379.832598,51.5391102 L367.13322,34.4249479 L367.13322,34.443976 L342.949105,1.8615794 L330.81845,1.8615794 L330.81845,5.62755137 L367.664133,55.27654 L379.832598,55.27654 L379.832598,51.5391102" id="Fill-3"></path>
                    <path d="M104.210481,1.8615794 L116.872049,1.8615794 L116.872049,55.2749544 L104.210481,55.2749544 L104.210481,1.8615794 Z" id="Fill-5"></path>
                    <path d="M223.722573,24.5636512 L203.042169,24.5636512 L203.042169,35.2843824 L217.616285,35.2843824 L231.547633,55.27654 L246.633757,55.27654 L223.722573,24.5636512" id="Fill-8"></path>
                    <path d="M64.6752296,28.3026668 L47.5410733,1.8615794 L62.0600495,1.8615794 L72.4467259,18.8790157 L64.6752296,28.3026668" id="Fill-10"></path>
                    <path d="M80.0654074,28.3026668 L97.4264227,55.27654 L82.9074465,55.27654 L72.2954865,37.9165986 L80.0654074,28.3026668" id="Fill-11"></path>
                    <path d="M416.571563,12.8709029 C422.068168,12.8709029 426.427327,15.3889507 429.195322,19.9287308 L440.300385,13.5178573 C435.789987,5.43092799 426.843235,0.661225393 416.722803,0.661225393 C400.347994,0.661225393 388.787637,12.1827211 388.787637,28.359751 L401.978543,28.359751 C401.978543,19.2024928 408.19511,12.8709029 416.571563,12.8709029" id="Fill-13"></path>
                    <path d="M0.236311461,22.8891812 L39.0890664,22.8891812 L39.0890664,34.3345646 L0.236311461,34.3345646 L0.236311461,22.8891812 Z" id="Fill-16"></path>
                    <path d="M291.726233,22.579975 L317.918995,22.579975 L317.918995,34.0253585 L291.726233,34.0253585 L291.726233,22.579975 Z" id="Fill-18"></path>
                    <path d="M153.124968,1.8615794 L165.786536,1.8615794 L165.786536,55.2749544 L153.124968,55.2749544 L153.124968,1.8615794 Z" id="Fill-22"></path>
                    <path d="M447.183694,2.64490157 L487.666998,2.64490157 L487.666998,14.1283411 L447.183694,14.1283411 L447.183694,2.64490157 Z" id="Fill-24"></path>
                    <path d="M254.886507,1.8615794 L267.548076,1.8615794 L267.548076,28.5690597 L254.886507,28.5690597 L254.886507,1.8615794 Z" id="Fill-25"></path>
                </g>
                <g id="dark" transform="translate(0.000000, 1.000000)" fill="#2E224C">
                    <path d="M379.832598,50.5391102 L379.832598,0.861579404 L367.13322,0.861579404 L367.13322,33.4249479 L379.832598,50.5391102" id="Fill-1"></path>
                    <path d="M330.81845,4.62755137 L330.81845,54.27654 L343.480018,54.27654 L343.480018,21.6941435 L330.81845,4.62755137" id="Fill-2"></path>
                    <path d="M126.954671,0.861579404 L116.872049,0.861579404 L116.872049,12.4227169 L126.764047,12.4227169 C131.315406,12.4227169 134.11806,14.5966738 134.11806,18.6797802 C134.11806,22.7232449 131.315406,24.8607313 126.764047,24.8607313 L116.872049,24.8607313 L116.872049,36.2300024 L127.068101,36.2300024 C140.069958,36.2300024 147.006487,29.2102307 147.006487,18.6797802 C147.006487,7.95904909 140.069958,0.861579404 126.954671,0.861579404" id="Fill-4"></path>
                    <path d="M215.703737,12.4227169 L225.975409,12.4227169 C230.447997,12.4227169 233.329421,14.1780563 233.329421,17.9551279 C233.329421,21.7702557 230.523617,23.5636512 225.975409,23.5636512 L223.722573,23.5636512 L231.431053,33.8958926 C240.922896,32.3593761 246.216273,26.4131045 246.216273,17.9551279 C246.216273,7.42467749 239.241934,0.861579404 226.126648,0.861579404 L203.042169,0.861579404 L203.042169,23.5636512 L215.703737,23.5636512 L215.703737,12.4227169" id="Fill-6"></path>
                    <path d="M203.042169,34.2843824 L215.703737,34.2843824 L215.703737,54.27654 L203.042169,54.27654 L203.042169,34.2843824 Z" id="Fill-7"></path>
                    <path d="M97.2357981,0.861579404 L82.8318269,0.861579404 L72.4467259,17.8790157 L64.6752296,27.3026668 L47.3142143,54.27654 L61.6819511,54.27654 L72.2954865,36.9165986 L80.0654074,27.3026668 L97.2357981,0.861579404" id="Fill-9"></path>
                    <path d="M416.609373,42.8501847 C408.762257,42.8501847 401.978543,37.2797175 401.978543,27.359751 L388.787637,27.359751 C388.787637,43.5367808 400.347994,55.0582765 416.722803,55.0582765 C426.881045,55.0582765 434.956595,50.5184964 439.808857,43.2307461 L429.422181,35.830413 C426.389517,40.370193 421.990973,42.8501847 416.609373,42.8501847" id="Fill-12"></path>
                    <path d="M12.8978795,12.6558108 L40.7196155,12.6558108 L40.7196155,1.17237119 L0.236311461,1.17237119 L0.236311461,21.8891812 L12.8978795,21.8891812 L12.8978795,12.6558108" id="Fill-14"></path>
                    <path d="M12.8978795,43.1007209 L12.8978795,33.3345646 L0.236311461,33.3345646 L0.236311461,54.5857462 L40.8724302,54.5857462 L40.8724302,43.1007209 L12.8978795,43.1007209" id="Fill-15"></path>
                    <path d="M291.726233,42.7915148 L291.726233,12.345019 L319.547969,12.345019 L319.547969,0.861579404 L279.064665,0.861579404 L279.064665,54.27654 L319.700784,54.27654 L319.700784,42.7915148 L291.726233,42.7915148" id="Fill-17"></path>
                    <path d="M165.786536,42.7915148 L193.761086,42.7915148 L193.761086,54.27654 L165.786536,54.27654 L165.786536,42.7915148 Z" id="Fill-19"></path>
                    <path d="M165.786536,0.861579404 L193.609847,0.861579404 L193.609847,12.345019 L165.786536,12.345019 L165.786536,0.861579404 Z" id="Fill-20"></path>
                    <path d="M165.786536,21.579975 L191.979298,21.579975 L191.979298,33.0253585 L165.786536,33.0253585 L165.786536,21.579975 Z" id="Fill-21"></path>
                    <path d="M487.819813,55.0582765 L447.183694,55.0582765 L447.183694,1.64490157 L487.666998,1.64490157 L487.666998,13.1283411 L459.845262,13.1283411 L459.845262,22.3617115 L486.038024,22.3617115 L486.038024,33.807095 L459.845262,33.807095 L459.845262,43.574837 L487.819813,43.574837 L487.819813,55.0582765 Z M447.183694,1.64490157 L487.666998,1.64490157 L487.666998,13.1283411 L447.183694,13.1283411 L447.183694,1.64490157 Z" id="Fill-23"></path>
                    <path d="M254.886507,27.5690597 L267.548076,27.5690597 L267.548076,54.27654 L254.886507,54.27654 L254.886507,27.5690597 Z" id="Fill-26"></path>
                </g>
            </g>
            <g id="support" transform="translate(71.500000, 142.826280)" sketch:type="MSShapeGroup">
                <g id="light" fill="#614F72">
                    <path d="M233.490265,0.76569953 C217.429599,0.76569953 206.053938,12.2279895 206.053938,27.7863852 L218.990237,27.7863852 C218.990237,18.853224 225.014919,12.6750342 233.490265,12.6750342 C241.968702,12.6750342 247.990293,18.853224 247.990293,27.7863852 L260.929682,27.7863852 C260.929682,12.2279895 249.550931,0.76569953 233.490265,0.76569953" id="Fill-2"></path>
                    <path d="M106.605753,36.2338299 L119.024414,36.2338299 L119.024414,53.8387316 L106.605753,53.8387316 L106.605753,36.2338299 Z" id="Fill-4"></path>
                    <path d="M106.605753,1.73249187 L119.024414,1.73249187 L119.024414,25.1427882 L106.605753,25.1427882 L106.605753,1.73249187 Z" id="Fill-5"></path>
                    <path d="M333.123873,1.73249187 L345.542535,1.73249187 L345.542535,53.8387316 L333.123873,53.8387316 L333.123873,1.73249187 Z" id="Fill-8"></path>
                    <path d="M74.6955829,42.3748948 C74.6894022,42.3748948 74.6847666,42.3764417 74.6770407,42.3764417 C68.4684824,42.3764417 64.3799197,38.9888013 64.3799197,31.8422724 L64.3799197,1.24986913 L51.9241735,1.24986913 L51.9241735,32.326442 C51.9241735,46.5823751 60.5123185,54.3229012 74.6770407,54.3229012 L74.6955829,54.3229012 L74.6955829,42.3748948" id="Fill-10"></path>
                    <path d="M178.144785,1.73249187 L168.255593,1.73249187 L168.255593,13.0091577 L177.957817,13.0091577 C182.420315,13.0091577 185.170746,15.1314602 185.170746,19.1130978 C185.170746,23.0591574 182.420315,25.1427882 177.957817,25.1427882 L168.255593,25.1427882 L168.255593,36.2338299 L178.256038,36.2338299 C191.00846,36.2338299 197.811915,29.3858464 197.811915,19.1130978 C197.811915,8.654725 191.00846,1.73249187 178.144785,1.73249187" id="Fill-11"></path>
                    <path d="M281.857684,13.0107045 L291.932298,13.0107045 C296.319082,13.0107045 299.145228,14.7215403 299.145228,18.4077261 C299.145228,22.1294899 296.394796,23.8774504 291.932298,23.8774504 L289.724227,23.8774504 L297.283278,33.9583875 C306.594571,32.4594726 311.784851,26.6587186 311.784851,18.4077261 C311.784851,8.13343057 304.944312,1.73249187 292.082182,1.73249187 L269.440568,1.73249187 L269.440568,23.8774504 L281.857684,23.8774504 L281.857684,13.0107045" id="Fill-13"></path>
                    <path d="M269.440568,34.3373701 L281.859229,34.3373701 L281.859229,53.8402785 L269.440568,53.8402785 L269.440568,34.3373701 Z" id="Fill-14"></path>
                    <path d="M18.6334007,32.6660295 L21.2370395,33.0759494 C21.7314991,33.1517459 22.1718772,33.2275424 22.6323427,33.3017921 L22.6323427,20.6344922 C18.6241296,19.8270272 15.6620076,18.7859852 15.6620076,16.2522159 C15.6620076,13.4369166 18.5484155,11.8730333 22.6323427,11.6162533 L22.6323427,0.271525281 C10.8209392,0.498914838 2.49547576,6.83488509 2.31468897,16.7750572 C2.12772144,26.1537163 7.92835053,30.9923186 18.6334007,32.6660295" id="Fill-16"></path>
                    <path d="M22.6323427,42.9465124 C15.6372846,42.7856382 10.3342055,40.1389475 6.47742067,37.5046317 L0.268862404,47.6288811 C5.91033732,51.8920486 14.1585414,54.1427411 22.6323427,54.2355532 L22.6323427,42.9465124" id="Fill-17"></path>
                </g>
                <g id="dark" transform="translate(22.000000, 0.000000)" fill="#2E224C">
                    <path d="M211.490265,42.8961892 C203.014919,42.8961892 196.990237,36.7179995 196.990237,27.7863852 L184.053938,27.7863852 C184.053938,43.343234 195.429599,54.8070708 211.490265,54.8070708 C227.550931,54.8070708 238.929682,43.343234 238.929682,27.7863852 L225.990293,27.7863852 C225.990293,36.7179995 219.968702,42.8961892 211.490265,42.8961892" id="Fill-1"></path>
                    <path d="M106.913606,1.73249187 L97.0244144,1.73249187 L97.0244144,13.0091577 L106.726639,13.0091577 C111.190682,13.0091577 113.939568,15.1314602 113.939568,19.1130978 C113.939568,23.0591574 111.190682,25.1427882 106.726639,25.1427882 L84.6057527,25.1427882 L84.6057527,36.2338299 L107.02486,36.2338299 C119.777282,36.2338299 126.580737,29.3858464 126.580737,19.1130978 C126.580737,8.654725 119.777282,1.73249187 106.913606,1.73249187" id="Fill-3"></path>
                    <path d="M295.695188,1.73249187 L311.123873,1.73249187 L311.123873,13.2705783 L295.695188,13.2705783 L295.695188,1.73249187 Z" id="Fill-6"></path>
                    <path d="M323.542535,1.73249187 L338.93568,1.73249187 L338.93568,13.2705783 L323.542535,13.2705783 L323.542535,1.73249187 Z" id="Fill-7"></path>
                    <path d="M63.0143365,1.24986913 L63.0143365,31.8422724 C63.0143365,38.981067 58.9304093,42.3671605 52.6955829,42.3748948 L52.6955829,54.3229012 C66.8494888,54.3151669 75.4685375,46.5761876 75.4685375,32.326442 L75.4685375,1.24986913 L63.0143365,1.24986913" id="Fill-9"></path>
                    <path d="M133.836931,1.73249187 L146.255593,1.73249187 L146.255593,53.8387316 L133.836931,53.8387316 L133.836931,1.73249187 Z" id="Fill-12"></path>
                    <path d="M267.724227,23.8774504 L247.440568,23.8774504 L247.440568,34.3373701 L261.735086,34.3373701 L275.397622,53.8387316 L290.195871,53.8387316 L267.724227,23.8774504" id="Fill-15"></path>
                    <path d="M6.52413776,21.6879091 L4.36705778,21.315114 C3.06292061,21.0877244 1.80513902,20.8696161 0.632342673,20.6344922 L0.632342673,33.3017921 C6.49323403,34.2593032 9.53570572,35.2384705 9.53570572,38.1373006 C9.53570572,41.3764417 5.96632553,42.9759029 1.28286607,42.9759029 C1.05881407,42.9759029 0.851759117,42.951153 0.632342673,42.9465124 L0.632342673,54.2355532 C0.811584275,54.2371001 0.989280691,54.2541156 1.17006748,54.2541156 C12.3247669,54.2541156 22.9942778,49.079843 22.9942778,36.6863387 C22.9942778,28.1630975 16.6373816,23.4358697 6.52413776,21.6879091" id="Fill-18"></path>
                    <path d="M16.7470898,15.9552173 L22.2881276,5.75671828 C14.4061327,1.4022856 8.30882785,0.249869132 1.28286607,0.249869132 C1.06190444,0.249869132 0.850213931,0.266884678 0.632342673,0.271525281 L0.632342673,11.6162533 C1.02791035,11.5915034 1.42193284,11.5636598 1.83913312,11.5636598 C7.93798316,11.5636598 13.030917,13.7215403 16.7470898,15.9552173" id="Fill-19"></path>
                </g>
            </g>
            <g id="discuss" transform="translate(81.000000, 143.144626)" sketch:type="MSShapeGroup">
                <g id="light" fill="#614F72">
                    <path d="M324.577671,21.8696161 L322.422136,21.496821 C321.116453,21.2694314 319.858672,21.0528699 318.685875,20.8161992 L318.685875,33.4850459 C324.546767,34.4425571 327.589238,35.4201775 327.589238,38.3205545 C327.589238,41.5581487 324.021403,43.1591568 319.336399,43.1591568 C319.112347,43.1591568 318.906837,43.1344069 318.685875,43.1282194 L318.685875,54.418807 C318.865117,54.4203539 319.044359,54.4358226 319.2236,54.4358226 C330.3783,54.4358226 341.049356,49.2630969 341.049356,36.8680457 C341.049356,28.3448044 334.690914,23.6191235 324.577671,21.8696161" id="Fill-3"></path>
                    <path d="M334.802168,16.1369242 L340.343206,5.93997211 C332.461211,1.58553943 326.362361,0.431576099 319.336399,0.431576099 C319.115437,0.431576099 318.905292,0.448591644 318.685875,0.453232247 L318.685875,11.7979602 C319.081443,11.7732104 319.475466,11.7453667 319.894211,11.7453667 C325.991516,11.7453667 331.08445,13.9047941 334.802168,16.1369242" id="Fill-4"></path>
                    <path d="M286.525914,36.8680457 C286.525914,28.3448044 280.169018,23.6191235 270.055774,21.8696161 L267.898695,21.496821 C267.541756,21.4349462 267.187909,21.3730715 266.837152,21.3127437 L263.926021,33.4463742 C269.942976,34.4162603 273.065797,35.3815058 273.065797,38.3205545 C273.065797,41.5581487 269.497962,43.1591568 264.814503,43.1591568 C257.488775,43.1591568 251.987912,40.4041853 248.009057,37.6863387 L241.800499,47.8105881 C247.562499,52.1650207 256.040935,54.4358226 264.701704,54.4358226 C275.856404,54.4358226 286.525914,49.2630969 286.525914,36.8680457" id="Fill-6"></path>
                    <path d="M220.084452,1.82066333 L220.084452,32.4146135 C220.084452,39.5534081 216.000525,42.9395015 209.765698,42.945689 L209.765698,54.8936954 C223.918059,54.887508 232.538653,47.1469818 232.538653,32.8987831 L232.538653,1.82066333 L220.084452,1.82066333" id="Fill-7"></path>
                    <path d="M0.0723592418,1.31793131 L12.491021,1.31793131 L12.491021,41.986631 L0.0723592418,41.986631 L0.0723592418,1.31793131 Z" id="Fill-10"></path>
                    <path d="M157.21546,55.4072555 C141.154794,55.1721316 129.981553,43.7670758 130.213331,27.987478 C130.282864,23.1937349 131.406214,18.8439428 133.368601,15.1036166 L144.430589,21.69482 C143.644089,23.5680769 143.185169,25.7336917 143.14963,28.1777427 C143.018289,37.109357 149.025973,43.3757182 157.240183,43.4963739 C162.631338,43.5752642 166.942407,41.1807129 169.720652,36.7922492 L180.521504,43.2055628 C175.981747,51.0296198 167.140191,55.5526611 157.21546,55.4072555" id="Fill-12"></path>
                    <path d="M58.6457336,27.4336993 L71.0643953,27.4336993 L71.0643953,53.4860458 L58.6457336,53.4860458 L58.6457336,27.4336993 Z" id="Fill-14"></path>
                    <path d="M97.401301,33.7727633 L100.003395,34.1826833 C100.499399,34.2584798 100.938232,34.3327295 101.398698,34.408526 L101.398698,21.7412261 C97.3920299,20.9337611 94.4283627,19.8927191 94.4283627,17.3589498 C94.4283627,14.2698549 97.8864895,12.6703936 102.607033,12.6703936 C108.704338,12.6703936 113.797272,14.8282741 117.51499,17.0619512 L123.056028,6.86345215 C115.174033,2.50901947 109.075183,1.35505614 102.049221,1.35505614 C89.8901507,1.35505614 81.2664664,7.75754171 81.0810441,17.8802442 C80.8940765,27.2604502 86.6947056,32.0990524 97.401301,33.7727633" id="Fill-15"></path>
                </g>
                <g id="dark" fill="#2E224C">
                    <path d="M314.688479,32.8492833 L317.290572,33.2576564 C317.786577,33.3334529 318.22541,33.4092494 318.685875,33.4850459 L318.685875,20.8161992 C314.679208,20.0087342 311.71554,18.9692391 311.71554,16.4354697 C311.71554,13.6201704 314.601948,12.0562872 318.685875,11.7979602 L318.685875,0.453232247 C306.876017,0.680621805 298.550554,7.01659206 298.368222,16.9567641 C298.181254,26.3354232 303.981883,31.1740255 314.688479,32.8492833" id="Fill-1"></path>
                    <path d="M318.685875,43.1282194 C311.692363,42.9673452 306.387738,40.3206545 302.530953,37.6863387 L296.322395,47.8105881 C301.965415,52.0753024 310.213619,54.325995 318.685875,54.418807 L318.685875,43.1282194" id="Fill-2"></path>
                    <path d="M260.166583,32.8492833 L262.768676,33.2576564 C263.179696,33.3210779 263.538179,33.3829527 263.926021,33.4463742 L266.837152,21.3127437 C261.541798,20.3861699 257.192099,19.507549 257.192099,16.4354697 C257.192099,13.3463748 260.650226,11.7453667 265.37077,11.7453667 C271.46962,11.7453667 276.562554,13.9047941 280.278727,16.1369242 L285.819764,5.93997211 C277.937769,1.58553943 271.838919,0.431576099 264.814503,0.431576099 C252.655432,0.431576099 244.030203,6.8325148 243.846326,16.9567641 C243.657813,26.3354232 249.459987,31.1740255 260.166583,32.8492833" id="Fill-5"></path>
                    <path d="M209.765698,42.945689 C209.759518,42.945689 209.753337,42.9472359 209.747156,42.9472359 C203.538598,42.9472359 199.44849,39.5611424 199.44849,32.4146135 L199.44849,1.82066333 L186.992744,1.82066333 L186.992744,32.8987831 C186.992744,47.1531693 195.580889,54.8952423 209.747156,54.8952423 C209.753337,54.8952423 209.759518,54.8936954 209.765698,54.8936954 L209.765698,42.945689" id="Fill-8"></path>
                    <path d="M22.3431283,1.37980602 L12.491021,1.37980602 L12.491021,12.8807677 L22.0819919,12.8807677 C31.7486769,12.8807677 36.3965971,18.9104581 36.3965971,27.4336993 C36.3965971,35.8455661 31.7486769,41.986631 22.0819919,41.986631 L0.0723592418,41.986631 L0.0723592418,53.4860458 L22.3431283,53.4860458 C38.627846,53.4860458 49.3715258,43.1405944 49.3715258,27.4336993 C49.3715258,11.7268043 38.627846,1.37980602 22.3431283,1.37980602" id="Fill-9"></path>
                    <path d="M157.719191,13.2783127 C151.968007,13.1947818 146.756094,16.1554867 144.430589,21.69482 L133.368601,15.1036166 C137.866638,6.53396933 146.825628,1.2081037 158.00505,1.37207168 C167.968411,1.51747725 175.822592,6.06217467 180.476693,13.239641 L170.184208,20.3103734 C167.276167,15.8383788 162.997547,13.3556561 157.719191,13.2783127" id="Fill-11"></path>
                    <path d="M58.6457336,1.37980602 L71.0643953,1.37980602 L71.0643953,27.4336993 L58.6457336,27.4336993 L58.6457336,1.37980602 Z" id="Fill-13"></path>
                    <path d="M107.290493,22.794643 L105.134958,22.4218479 C103.829276,22.1944583 102.571494,21.97635 101.398698,21.7412261 L101.398698,34.408526 C107.259589,35.3660371 110.302061,36.3452044 110.302061,39.2440345 C110.302061,42.4816287 106.734226,44.0826368 102.049221,44.0826368 C94.7234933,44.0826368 89.2226303,41.3292122 85.2437758,38.6113656 L79.0352175,48.735615 C84.7972169,53.0900476 93.2756538,55.3593026 101.936423,55.3593026 C113.091122,55.3593026 123.762178,50.1865769 123.762178,37.7930726 C123.762178,29.2698313 117.403737,24.5426035 107.290493,22.794643" id="Fill-16"></path>
                </g>
            </g>
            <g id="hear" transform="translate(147.699930, 144.685909)" sketch:type="MSShapeGroup">
                <g id="light" fill="#614F72">
                    <path d="M150.108661,30.5924033 L112.350491,30.5924033 L108.105864,41.6695231 L154.351743,41.6695231 L150.108661,30.5924033" id="Fill-2"></path>
                    <path d="M57.5226477,0.668246863 L97.2292982,0.668246863 L97.2292982,11.870663 L57.5226477,11.870663 L57.5226477,0.668246863 Z" id="Fill-6"></path>
                    <path d="M0.809677583,20.9724328 L47.543835,20.9724328 L47.543835,32.4733944 L0.809677583,32.4733944 L0.809677583,20.9724328 Z" id="Fill-11"></path>
                    <path d="M192.760437,32.9003299 C202.093361,31.4122432 207.296004,25.6053017 207.296004,17.3434811 C207.296004,7.07073243 200.455464,0.668246863 187.593334,0.668246863 L177.368837,0.668246863 L177.368837,11.9464595 L187.444996,11.9464595 C191.83178,11.9464595 194.657925,13.6588421 194.657925,17.3434811 C194.657925,21.0652449 191.905949,22.8132054 187.444996,22.8132054 L177.368837,22.8132054 L177.368837,33.2715782 L179.190611,33.2715782 L192.908775,52.7760335 L207.707023,52.7760335 L192.760437,32.9003299" id="Fill-12"></path>
                </g>
                <g id="dark" fill="#2E224C">
                    <path d="M131.098235,13.029267 L137.418047,30.5924033 L150.108661,30.5924033 L138.644925,0.674434334 L123.812682,0.674434334 L112.350491,30.5924033 L124.779969,30.5924033 L131.098235,13.029267" id="Fill-1"></path>
                    <path d="M141.432441,41.6695231 L145.372665,52.769846 L158.60564,52.769846 L154.351743,41.6695231 L141.432441,41.6695231" id="Fill-3"></path>
                    <path d="M108.105864,41.6695231 L103.853512,52.769846 L116.82535,52.769846 L120.765575,41.6695231" id="Fill-4"></path>
                    <path d="M97.3791812,52.7760335 L57.5226477,52.7760335 L57.5226477,0.668246863 L97.2308434,0.668246863 L97.2308434,11.870663 L69.9413094,11.870663 L69.9413094,20.8780739 L95.6315756,20.8780739 L95.6315756,32.0433652 L69.9413094,32.0433652 L69.9413094,41.5720705 L97.3791812,41.5720705 L97.3791812,52.7760335 Z M57.5226477,0.668246863 L97.2292982,0.668246863 L97.2292982,11.870663 L57.5226477,11.870663 L57.5226477,0.668246863 Z" id="Fill-5"></path>
                    <path d="M0.809677583,0.911105098 L13.2283393,0.911105098 L13.2283393,20.9724328 L0.809677583,20.9724328 L0.809677583,0.911105098 Z" id="Fill-7"></path>
                    <path d="M35.1251733,0.911105098 L47.543835,0.911105098 L47.543835,20.9724328 L35.1251733,20.9724328 L35.1251733,0.911105098 Z" id="Fill-8"></path>
                    <path d="M0.809677583,32.4718476 L13.2283393,32.4718476 L13.2283393,53.0173449 L0.809677583,53.0173449 L0.809677583,32.4718476 Z" id="Fill-9"></path>
                    <path d="M35.1251733,32.4718476 L47.543835,32.4718476 L47.543835,53.0173449 L35.1251733,53.0173449 L35.1251733,32.4718476 Z" id="Fill-10"></path>
                    <path d="M177.370382,11.9464595 L177.370382,0.668246863 L164.95172,0.668246863 L164.95172,52.7760335 L177.370382,52.7760335 L177.370382,11.9464595" id="Fill-13"></path>
                </g>
            </g>
            <g id="see" transform="translate(178.831061, 144.826280)" sketch:type="MSShapeGroup">
                <g id="light" fill="#614F72">
                    <path d="M106.348723,20.3158374 L144.457651,20.3158374 L144.457651,31.4811288 L106.348723,31.4811288 L106.348723,20.3158374 Z" id="Fill-3"></path>
                    <path d="M54.7395028,0.365884213 L67.1581645,0.365884213 L67.1581645,52.472124 L54.7395028,52.472124 L54.7395028,0.365884213 Z" id="Fill-7"></path>
                    <path d="M28.3539028,21.8054711 L27.2969954,21.6213938 L19.8043874,32.9939654 L21.0683497,33.1935114 C27.8718047,34.2361002 31.3654707,35.1286429 31.3654707,38.2548626 C31.3654707,41.4924568 27.7976357,43.0934649 23.1126311,43.0934649 C15.7884484,43.0934649 10.2860402,40.3400403 6.30873086,37.6221937 L0.100172594,47.746443 C5.86217204,52.1008757 14.3390637,54.3701307 23.0013777,54.3701307 C34.156077,54.3701307 44.8255879,49.197405 44.8255879,36.8039007 C44.8255879,28.2806594 38.4671466,23.5534316 28.3539028,21.8054711" id="Fill-8"></path>
                </g>
                <g id="dark" transform="translate(2.000000, 0.000000)" fill="#2E224C">
                    <path d="M116.767384,11.3084266 L144.055373,11.3084266 L144.055373,0.106010433 L104.348723,0.106010433 L104.348723,20.3158374 L116.767384,20.3158374 L116.767384,11.3084266" id="Fill-1"></path>
                    <path d="M116.767384,41.0082872 L116.767384,31.4811288 L104.348723,31.4811288 L104.348723,52.2122502 L144.205256,52.2122502 L144.205256,41.0082872 L116.767384,41.0082872" id="Fill-2"></path>
                    <path d="M65.1581645,41.2697078 L92.5960363,41.2697078 L92.5960363,52.4736708 L65.1581645,52.4736708 L65.1581645,41.2697078 Z" id="Fill-4"></path>
                    <path d="M65.1581645,0.365884213 L92.4476985,0.365884213 L92.4476985,11.5683004 L65.1581645,11.5683004 L65.1581645,0.365884213 Z" id="Fill-5"></path>
                    <path d="M65.1581645,20.5772581 L90.8484307,20.5772581 L90.8484307,31.7425494 L65.1581645,31.7425494 L65.1581645,20.5772581 Z" id="Fill-6"></path>
                    <path d="M36.5784,16.0727792 C32.8622272,13.8391022 27.7692933,11.6812217 21.6704433,11.6812217 C16.9498994,11.6812217 13.4917726,13.280683 13.4917726,16.3697778 C13.4917726,19.6460437 18.4363685,20.4272119 24.198368,21.4326759 L25.2969954,21.6213938 L17.8043874,32.9939654 L16.4647109,32.7835914 C5.75811554,31.1098805 -0.0425135607,26.2712782 0.144453973,16.8910723 C0.32987632,6.76836978 8.95510584,0.365884213 21.1126311,0.365884213 C28.1385929,0.365884213 34.2374429,1.51984755 42.1194378,5.87428023 L36.5784,16.0727792" id="Fill-9"></path>
                </g>
            </g>
            <g id="line-2" transform="translate(0.725498, 72.289252)" fill="#32234A" sketch:type="MSShapeGroup">
                <path d="M429.026602,0.855373917 C413.519725,0.855373917 402.195807,11.7395658 401.675547,26.8746578 L401.626827,26.8746578 L401.626827,29.0263264 L401.675547,29.0263264 C402.195807,44.1614184 413.519725,55.0456103 429.026602,55.0456103 C444.535218,55.0456103 455.857396,44.1614184 456.377656,29.0263264 L456.428116,29.0263264 L456.428116,26.8746578 L456.377656,26.8746578 C455.857396,11.7395658 444.535218,0.855373917 429.026602,0.855373917 L429.026602,0.855373917 Z M429.026602,52.8921938 C414.756865,52.8921938 404.302947,42.9204072 403.789647,29.0263264 L414.067825,29.0263264 C414.530665,37.6487318 420.551063,43.5776188 429.026602,43.5776188 C437.5004,43.5776188 443.520799,37.6487318 443.983639,29.0263264 L454.265297,29.0263264 C453.750257,42.9204072 443.296339,52.8921938 429.026602,52.8921938 L429.026602,52.8921938 Z M416.183664,27.951366 C416.183664,20.0176344 421.464563,14.4767819 429.026602,14.4767819 C436.5869,14.4767819 441.867799,20.0176344 441.867799,27.951366 C441.867799,35.8850977 436.5869,41.4242023 429.026602,41.4242023 C421.464563,41.4242023 416.183664,35.8850977 416.183664,27.951366 L416.183664,27.951366 Z M443.983639,26.8746578 C443.520799,18.2522524 437.5004,12.3251133 429.026602,12.3251133 C420.551063,12.3251133 414.530665,18.2522524 414.067825,26.8746578 L403.789647,26.8746578 C404.302947,12.9805769 414.756865,3.0087904 429.026602,3.0087904 C443.296339,3.0087904 453.750257,12.9805769 454.265297,26.8746578 L443.983639,26.8746578 L443.983639,26.8746578 Z" id="Fill-3"></path>
                <path d="M15.0465518,54.113978 L29.1057489,54.113978 L29.1057489,15.0500941 L43.8766059,15.0500941 L43.8766059,1.78700621 L0.240894763,1.78700621 L0.240894763,15.0500941 L15.0465518,15.0500941 L15.0465518,54.113978 L15.0465518,54.113978 Z M29.1057489,3.94042269 L41.7329263,3.94042269 L41.7329263,12.8966776 L29.1057489,12.8966776 L29.1057489,3.94042269 Z M17.1884913,15.0500941 L17.1884913,3.94042269 L26.9620693,3.94042269 L26.9620693,51.9605615 L17.1884913,51.9605615 L17.1884913,15.0500941 L17.1884913,15.0500941 Z M2.38283433,3.94042269 L15.0465518,3.94042269 L15.0465518,12.8966776 L2.38283433,12.8966776 L2.38283433,3.94042269 Z" id="Fill-4"></path>
                <path d="M493.665108,31.8561813 C493.665108,39.3407019 488.862709,40.9155625 484.83461,40.9208062 L484.77893,40.9208062 C480.768231,40.9103188 476.007592,39.3249708 476.007592,31.8561813 L476.007592,1.32206401 L461.911855,1.32206401 L461.911855,32.3228714 C461.911855,46.1155739 469.868873,54.1506839 483.76277,54.5422142 L483.76277,54.5771723 L484.78937,54.5771723 C484.79981,54.5771723 484.80851,54.5789202 484.81895,54.5789202 L485.90645,54.5771723 L485.90645,54.5387184 C499.802087,54.1367007 507.759105,46.1033386 507.759105,32.3228714 L507.759105,1.32206401 L493.665108,1.32206401 L493.665108,31.8561813 L493.665108,31.8561813 Z M483.76277,52.4097726 C471.220853,52.0269818 464.053794,44.7539575 464.053794,32.3228714 L464.053794,3.4754805 L473.865652,3.4754805 L473.865652,31.8561813 C473.865652,38.6118264 477.450051,42.6389948 483.76277,43.0392646 L483.76277,52.4097726 L483.76277,52.4097726 Z M495.808788,3.4754805 L505.615426,3.4754805 L505.615426,32.3228714 C505.615426,44.7417221 498.450107,52.0129986 485.90645,52.4080247 L485.90645,43.0392646 C492.215688,42.6302553 495.808788,38.6048348 495.808788,31.8561813 L495.808788,3.4754805 L495.808788,3.4754805 Z" id="Fill-5"></path>
                <path d="M221.425207,34.3993802 L212.366769,1.78875411 L197.684652,1.78875411 L188.525294,34.762944 L179.806156,1.78875411 L165.423319,1.78875411 L180.604816,54.1122301 L196.407493,54.1122301 L205.025711,24.600636 L213.643929,54.1122301 L229.446606,54.1122301 L244.626363,1.78875411 L230.066046,1.78875411 L221.425207,34.3993802 L221.425207,34.3993802 Z M183.750735,51.9605615 L182.212575,51.9605615 L168.280398,3.94042269 L178.158376,3.94042269 L187.390814,38.8512891 L183.750735,51.9605615 L183.750735,51.9605615 Z M216.882068,51.9605615 L215.248209,51.9605615 L205.025711,16.9518125 L194.803213,51.9605615 L185.974455,51.9605615 L199.309812,3.94042269 L210.74161,3.94042269 L220.403828,38.7376754 L216.882068,51.9605615 L216.882068,51.9605615 Z M241.771023,3.94042269 L227.838846,51.9605615 L219.098828,51.9605615 L222.625807,38.7236922 L222.559687,38.4842294 L231.712085,3.94042269 L241.771023,3.94042269 L241.771023,3.94042269 Z" id="Fill-6"></path>
                <path d="M372.051054,54.113978 L386.146791,54.113978 L386.146791,34.0532954 L405.638267,1.78700621 L389.69117,1.78700621 L379.157212,20.7063082 L368.578014,1.78700621 L352.225498,1.78700621 L372.051054,34.0969929 L372.051054,54.113978 L372.051054,54.113978 Z M384.004851,51.9605615 L375.330953,51.9605615 L384.004851,37.6015384 L384.004851,51.9605615 L384.004851,51.9605615 Z M390.94919,3.94042269 L401.829408,3.94042269 L386.146791,29.9037737 L386.139831,29.916009 L374.194733,49.6917834 L374.194733,34.0288247 L374.314793,33.8120848 L390.94919,3.94042269 L390.94919,3.94042269 Z M356.063937,3.94042269 L367.323475,3.94042269 L377.923552,22.8981785 L373.063733,31.6446851 L356.063937,3.94042269 L356.063937,3.94042269 Z" id="Fill-7"></path>
                <path d="M312.474687,20.7063082 L301.940729,1.78700621 L285.991893,1.78700621 L305.485109,34.0550433 L305.485109,54.113978 L319.580846,54.113978 L319.580846,34.095245 L339.406402,1.78700621 L323.053885,1.78700621 L312.474687,20.7063082 L312.474687,20.7063082 Z M307.627048,51.9605615 L307.627048,37.6015384 L316.300947,51.9605615 L307.627048,51.9605615 L307.627048,51.9605615 Z M317.437166,49.6917834 L305.499029,29.9264964 L305.485109,29.9037737 L289.800752,3.94042269 L300.68271,3.94042269 L317.431946,34.0183373 L317.437166,34.0288247 L317.437166,49.6917834 L317.437166,49.6917834 Z M335.567963,3.94042269 L318.566426,31.646433 L313.706607,22.8999264 L324.306685,3.94042269 L335.567963,3.94042269 L335.567963,3.94042269 Z" id="Fill-8"></path>
                <path d="M117.321251,34.1511779 L141.971826,34.1511779 L141.971826,21.2481581 L117.321251,21.2481581 L117.321251,14.726732 L143.508245,14.726732 L143.508245,1.78700621 L103.262053,1.78700621 L103.262053,54.113978 L143.649185,54.113978 L143.649185,41.1725042 L117.321251,41.1725042 L117.321251,34.1511779 L117.321251,34.1511779 Z M105.405733,3.94042269 L141.364566,3.94042269 L141.364566,12.5733155 L115.179311,12.5733155 L115.179311,21.2481581 L105.405733,21.2481581 L105.405733,3.94042269 L105.405733,3.94042269 Z M105.405733,23.3998267 L139.829886,23.3998267 L139.829886,31.9977615 L105.405733,31.9977615 L105.405733,23.3998267 Z M141.507246,43.3259207 L141.507246,51.9605615 L105.405733,51.9605615 L105.405733,34.1511779 L115.179311,34.1511779 L115.179311,43.3259207 L141.507246,43.3259207 L141.507246,43.3259207 Z" id="Fill-9"></path>
                <path d="M82.8322178,21.10483 L63.9636616,21.10483 L63.9636616,1.78700621 L49.9044645,1.78700621 L49.9044645,54.113978 L63.9636616,54.113978 L63.9636616,34.3312119 L82.8322178,34.3312119 L82.8322178,54.113978 L96.8914149,54.113978 L96.8914149,1.78700621 L82.8322178,1.78700621 L82.8322178,21.10483 L82.8322178,21.10483 Z M61.8199821,21.10483 L61.8199821,51.9605615 L52.048144,51.9605615 L52.048144,3.94042269 L61.8199821,3.94042269 L61.8199821,21.10483 L61.8199821,21.10483 Z M84.9758974,3.94042269 L94.7494754,3.94042269 L94.7494754,51.9605615 L84.9758974,51.9605615 L84.9758974,32.1777955 L63.9636616,32.1777955 L63.9636616,23.2564986 L84.9758974,23.2564986 L84.9758974,3.94042269 L84.9758974,3.94042269 Z" id="Fill-12"></path>
                <path d="M245.195102,41.9573127 L240.556263,54.1069864 L255.31842,54.1069864 L259.099439,43.4203075 L277.418155,43.4203075 L281.199175,54.1069864 L296.211892,54.1069864 L276.234956,1.79399782 L260.531459,1.79399782 L248.708161,32.7528555 L248.709901,32.7528555 L245.195102,41.9573127 L245.195102,41.9573127 Z M293.095552,51.9553178 L282.711234,51.9553178 L279.692335,43.4203075 L289.836533,43.4203075 L293.095552,51.9553178 L293.095552,51.9553178 Z M262.003499,3.9456664 L274.762916,3.9456664 L284.940174,30.601187 L275.074376,30.601187 L268.258797,11.5892462 L261.441479,30.601187 L251.826241,30.601187 L262.003499,3.9456664 L262.003499,3.9456664 Z M272.796716,30.601187 L263.720878,30.601187 L268.258797,17.9411256 L272.796716,30.601187 L272.796716,30.601187 Z M251.004961,32.7528555 L285.763194,32.7528555 L289.013513,41.266891 L247.752901,41.266891 L251.004961,32.7528555 L251.004961,32.7528555 Z M256.82526,43.4203075 L253.80636,51.9553178 L243.674342,51.9553178 L246.931622,43.4203075 L256.82526,43.4203075 L256.82526,43.4203075 Z" id="Fill-16"></path>
            </g>
            <g id="line-1" transform="translate(51.225498, 0.433878)" fill="#32234A" sketch:type="MSShapeGroup">
                <path d="M202.48321,30.3419994 L202.48321,30.3437473 L181.330035,1.90186984 L168.304397,1.90186984 L168.304397,54.2270937 L182.363594,54.2270937 L182.363594,25.7782247 L203.51677,54.2270937 L216.578947,54.2270937 L216.578947,1.90186984 L202.48321,1.90186984 L202.48321,30.3419994 L202.48321,30.3419994 Z M180.221655,52.0736772 L170.448077,52.0736772 L170.448077,9.75519797 L180.221655,22.9029242 L180.221655,52.0736772 L180.221655,52.0736772 Z M214.435268,52.0736772 L204.59035,52.0736772 L170.448077,6.15626572 L170.448077,4.05528632 L180.256455,4.05528632 L213.843668,49.2018726 L214.435268,49.9989164 L214.435268,52.0736772 L214.435268,52.0736772 Z M204.62515,4.05528632 L214.435268,4.05528632 L214.435268,46.3999841 L204.62515,33.2068124 L204.62515,4.05528632 L204.62515,4.05528632 Z" id="Fill-1"></path>
                <path d="M334.62976,30.3437473 L313.478325,1.90186984 L300.452687,1.90186984 L300.452687,54.2270937 L314.511885,54.2270937 L314.511885,25.7834684 L335.66506,54.2270937 L348.725498,54.2270937 L348.725498,1.90186984 L334.62976,1.90186984 L334.62976,30.3437473 L334.62976,30.3437473 Z M302.594627,4.05353842 L312.368205,4.05353842 L312.368205,52.0736772 L302.594627,52.0736772 L302.594627,4.05353842 Z M336.77344,4.05353842 L346.581818,4.05353842 L346.581818,52.0736772 L336.73864,52.0736772 L314.511885,22.1880319 L314.511885,6.89038497 L336.77344,36.8232236 L336.77344,4.05353842 L336.77344,4.05353842 Z" id="Fill-2"></path>
                <path d="M406.504185,23.7436656 L380.52251,23.7436656 L380.52251,35.1434889 L392.302308,35.1434889 C390.720648,39.7736839 387.068389,42.0581931 381.12977,42.0581931 C374.808352,42.0581931 368.431253,37.7373769 368.431253,28.0819608 C368.431253,20.0223801 373.637332,14.3923846 381.09323,14.3923846 C385.145689,14.3923846 388.470829,15.7609926 390.978168,18.4597548 L391.728108,19.267286 L401.759206,9.36017189 L401.024926,8.59284248 C396.266027,3.61831058 389.572249,0.987716579 381.66569,0.987716579 C365.643773,0.987716579 354.015356,12.3822962 354.015356,28.0819608 C354.015356,43.7606506 365.598533,55.1394991 381.55781,55.1394991 C393.856128,55.1394991 403.634926,47.1375992 406.189245,35.1434889 L406.225785,35.1434889 L406.385865,34.25905 L406.613805,32.9918203 L406.556385,32.9918203 C406.756485,31.5393129 406.888725,30.0658307 406.888725,28.583609 C406.888725,27.2517069 406.803465,25.9757377 406.629465,24.6770458 L406.504185,23.7436656 L406.504185,23.7436656 Z M381.55781,52.9878305 C366.840893,52.9878305 356.157295,42.5126479 356.157295,28.0819608 C356.157295,13.3978278 366.646013,3.14113306 381.66569,3.14113306 C388.563049,3.14113306 394.435548,5.27881842 398.726387,9.33570125 L391.766388,16.2119516 C388.961509,13.6093241 385.295329,12.240716 381.09323,12.240716 C372.375832,12.240716 366.287573,18.7551505 366.287573,28.0819608 C366.287573,37.5783177 372.391492,44.2116096 381.12977,44.2116096 C388.227229,44.2116096 392.860848,41.0811153 394.585188,35.1434889 L404.015986,35.1434889 C401.533006,45.8721174 392.659008,52.9878305 381.55781,52.9878305 L381.55781,52.9878305 Z M404.423146,32.9918203 L382.66445,32.9918203 L382.66445,25.8970821 L404.616285,25.8970821 C404.703285,26.7832689 404.745045,27.6554725 404.745045,28.583609 C404.745045,30.0658307 404.637165,31.5445566 404.423146,32.9918203 L404.423146,32.9918203 Z" id="Fill-10"></path>
                <path d="M273.709115,23.7436656 L247.72744,23.7436656 L247.72744,35.1434889 L259.543778,35.1434889 C258.009098,39.6548265 254.473419,41.9113692 248.77666,42.0302266 L248.05108,42.0442099 C241.823621,41.9183609 235.634443,37.592301 235.634443,28.0819608 C235.634443,20.0573382 240.798762,14.4448217 248.413,14.4063678 L248.7697,14.4151073 C252.622059,14.5234773 255.790599,15.8833458 258.181358,18.4597548 L258.931298,19.267286 L268.962396,9.36017189 L268.229856,8.59284248 C263.688457,3.84379006 257.370518,1.26038945 249.86938,1.03490996 L249.86938,0.987716579 L248.7958,0.989464482 L247.72744,0.989464482 L247.72744,1.03840577 C232.070923,1.55578505 221.218546,12.5221284 221.218546,28.0819608 C221.218546,43.4163137 232.309303,54.6063886 247.72744,55.0940536 L247.72744,55.1394991 L248.7175,55.1377512 C248.73316,55.1377512 248.74708,55.1394991 248.76274,55.1394991 L249.86938,55.1377512 L249.86938,55.0888099 C262.080697,54.5696827 274.093655,45.4998141 274.093655,28.583609 C274.093655,27.2517069 274.008395,25.9739898 273.834395,24.6770458 L273.709115,23.7436656 L273.709115,23.7436656 Z M249.86938,3.15336838 C256.335218,3.35262932 261.849277,5.47458355 265.929576,9.33395335 L258.969578,16.2119516 C256.531838,13.9536609 253.420719,12.6235068 249.86938,12.3228675 L249.86938,3.15336838 L249.86938,3.15336838 Z M247.72744,52.9703514 C233.546443,52.4896781 223.362225,42.1735547 223.362225,28.0819608 C223.362225,13.7823665 233.323723,3.67074767 247.72744,3.1621079 L247.72744,12.2494555 C239.314542,12.5273721 233.492503,18.9596551 233.492503,28.0819608 C233.492503,37.3563341 239.314542,43.8987349 247.72744,44.1993743 L247.72744,52.9703514 L247.72744,52.9703514 Z M249.86938,52.959864 L249.86938,44.1364497 C256.410038,43.6854908 260.596478,40.3067943 262.005877,34.3149829 L262.317337,32.9900724 L249.86938,32.9900724 L249.86938,25.8970821 L271.819475,25.8970821 C271.908215,26.781521 271.949975,27.6554725 271.949975,28.583609 C271.949975,44.0840127 261.015817,52.4407368 249.86938,52.959864 L249.86938,52.959864 Z" id="Fill-11"></path>
                <path d="M90.2534552,22.151326 L71.384899,22.151326 L71.384899,2.83350214 L57.3257019,2.83350214 L57.3257019,55.1604739 L71.384899,55.1604739 L71.384899,35.3777079 L90.2534552,35.3777079 L90.2534552,55.1604739 L104.312652,55.1604739 L104.312652,2.83350214 L90.2534552,2.83350214 L90.2534552,22.151326 L90.2534552,22.151326 Z M59.4693814,4.98691862 L69.2429594,4.98691862 L69.2429594,22.151326 L59.4693814,22.151326 L59.4693814,4.98691862 Z M59.4693814,35.3777079 L69.2429594,35.3777079 L69.2429594,53.0070574 L59.4693814,53.0070574 L59.4693814,35.3777079 Z M92.3971347,35.3777079 L102.170713,35.3777079 L102.170713,53.0070574 L92.3971347,53.0070574 L92.3971347,35.3777079 Z M59.4693814,24.3047424 L102.170713,24.3047424 L102.170713,33.2260393 L59.4693814,33.2260393 L59.4693814,24.3047424 Z M92.3971347,4.98691862 L102.170713,4.98691862 L102.170713,22.151326 L92.3971347,22.151326 L92.3971347,4.98691862 Z" id="Fill-13"></path>
                <path d="M279.623633,26.9877735 L279.623633,54.2270937 L293.68283,54.2270937 L293.68283,1.90186984 L279.623633,1.90186984 L279.623633,26.9877735 L279.623633,26.9877735 Z M281.765572,4.05353842 L291.53915,4.05353842 L291.53915,26.9877735 L281.765572,26.9877735 L281.765572,4.05353842 Z M281.765572,29.14119 L291.53915,29.14119 L291.53915,52.0754251 L281.765572,52.0754251 L281.765572,29.14119 Z" id="Fill-14"></path>
                <path d="M127.268486,43.6907345 L145.608083,43.6907345 L149.390842,54.2270937 L164.401819,54.2270937 L144.421403,1.90186984 L128.714426,1.90186984 L108.73401,54.2270937 L123.497907,54.2270937 L127.268486,43.6907345 L127.268486,43.6907345 Z M141.454703,4.05353842 L142.949363,4.05353842 L161.283739,52.0736772 L150.895941,52.0736772 L147.113182,41.537318 L128.048006,41.537318 L131.143465,32.8677192 L144.031643,32.8677192 L137.581464,14.8748058 L141.454703,4.05353842 L141.454703,4.05353842 Z M131.912545,30.7160506 L136.443504,18.0524935 L140.983163,30.7160506 L131.912545,30.7160506 L131.912545,30.7160506 Z M111.852089,52.0736772 L130.186466,4.05353842 L139.177044,4.05353842 L121.991067,52.0736772 L111.852089,52.0736772 L111.852089,52.0736772 Z" id="Fill-15"></path>
                <path d="M28.1058692,1.90186984 C12.6181324,1.90186984 1.30987465,12.7860617 0.789614753,27.9211537 L0.740894763,27.9211537 L0.740894763,30.0728223 L0.789614753,30.0728223 C1.30987465,45.2079143 12.6181324,56.0921062 28.1058692,56.0921062 C37.7037073,56.0921062 45.7372856,51.9757946 50.7223846,44.5035094 L51.3035445,43.6330537 L39.7777868,35.4371366 L39.167047,36.3530377 C36.4891875,40.3539877 32.6263883,42.4706982 27.9979892,42.4706982 C21.8818905,42.4706982 15.2994718,38.2547562 15.2994718,28.9961141 C15.2994718,21.0641303 20.5072908,15.5232778 27.9614492,15.5232778 C32.6942483,15.5232778 36.4857075,17.6382404 38.928667,21.6391904 L39.4732869,22.5306209 L51.7489844,15.4603533 L51.2287245,14.528721 C46.8108654,6.62295581 38.1665472,1.90186984 28.1058692,1.90186984 L28.1058692,1.90186984 Z M27.9979892,44.6223668 C33.0144082,44.6223668 37.2478274,42.4934209 40.3067467,38.4505213 L48.3420651,44.1644162 C43.734546,50.4778418 36.5883675,53.9386897 28.1058692,53.9386897 C13.6203721,53.9386897 3.39613422,44.1818952 2.90197432,30.0728223 L13.1836322,30.0728223 C13.6429921,38.6952277 19.6042309,44.6223668 27.9979892,44.6223668 L27.9979892,44.6223668 Z M40.1849468,19.6395894 C37.3278673,15.5337652 33.1222882,13.3716093 27.9614492,13.3716093 C19.7277709,13.3716093 13.6586521,19.4263452 13.1853722,27.9211537 L2.90197432,27.9211537 C3.39613422,13.8120808 13.6203721,4.05528632 28.1058692,4.05528632 C36.9816074,4.05528632 44.6393459,8.00030337 48.817085,14.6668054 L40.1849468,19.6395894 L40.1849468,19.6395894 Z" id="Fill-17"></path>
            </g>
            <g id="line-4" transform="translate(173.500000, 214.000000)" fill="#32234A" sketch:type="MSShapeGroup">
                <path d="M77.8075741,35.5595684 L77.9829666,35.5595684 L91.4684981,54.8332347 L108.852037,54.8332347 L93.8649316,34.8240692 C102.34283,32.845397 107.345094,26.9273195 107.345094,18.7112555 C107.345094,7.70208852 99.661831,1.12923733 86.7955422,1.12923733 L63.3466458,1.12923733 L63.3466458,54.8332347 L77.8075741,54.8332347 L77.8075741,35.5595684 L77.8075741,35.5595684 Z M65.5497897,3.33932266 L86.7955422,3.33932266 C98.4537708,3.33932266 105.14016,8.94167372 105.14016,18.7112555 C105.14016,26.215141 100.510158,31.3474902 92.4063108,32.8758933 L86.6738413,25.2231141 C91.8837129,25.2159385 94.8689639,22.8426082 94.8689639,18.7112555 C94.8689639,14.6193686 91.8729746,12.2729468 86.6487852,12.2729468 L75.6026405,12.2729468 L75.6026405,23.0148226 L65.5497897,23.0148226 L65.5497897,3.33932266 L65.5497897,3.33932266 Z M86.6487852,23.0148226 L77.8075741,23.0148226 L77.8075741,14.4830322 L86.6487852,14.4830322 C90.641648,14.4830322 92.66582,15.9055952 92.66582,18.7112555 C92.66582,21.567145 90.641648,23.0148226 86.6487852,23.0148226 L86.6487852,23.0148226 Z M65.5497897,25.2231141 L83.9158846,25.2231141 L104.44217,52.6231493 L92.6157079,52.6231493 L79.1301764,33.349483 L65.5497897,33.349483 L65.5497897,25.2231141 L65.5497897,25.2231141 Z M65.5497897,35.5595684 L75.6026405,35.5595684 L75.6026405,52.6231493 L65.5497897,52.6231493 L65.5497897,35.5595684 Z" id="Fill-1"></path>
                <path d="M138.916187,0.173088393 L111.431475,0.173088393 L111.431475,13.783411 L126.660193,13.783411 L126.660193,53.8752918 L141.121121,53.8752918 L141.121121,13.783411 L156.314044,13.783411 L156.314044,0.173088393 L138.916187,0.173088393 L138.916187,0.173088393 Z M138.916187,13.783411 L138.916187,51.6652065 L128.865126,51.6652065 L128.865126,11.5751196 L113.636409,11.5751196 L113.636409,2.38317373 L138.916187,2.38317373 L138.916187,13.783411 L138.916187,13.783411 Z M141.121121,2.38317373 L154.1109,2.38317373 L154.1109,11.5751196 L141.121121,11.5751196 L141.121121,2.38317373 Z" id="Fill-2"></path>
                <path d="M19.5920522,44.0196028 L38.4574786,44.0196028 L42.3357994,54.8332347 L57.5215638,54.8332347 L36.9702223,1.12923733 L20.8126405,1.12923733 L0.261298952,54.8332347 L15.7029932,54.8332347 L19.5920522,44.0196028 L19.5920522,44.0196028 Z M35.4543304,3.33932266 L54.3125979,52.6231493 L43.8856959,52.6231493 L36.5496383,32.1744783 L36.023461,30.701686 L36.0216713,30.701686 L26.2068531,3.33932266 L35.4543304,3.33932266 L35.4543304,3.33932266 Z M33.680719,30.701686 L24.3491249,30.701686 L29.0185014,17.7066712 L33.680719,30.701686 L33.680719,30.701686 Z M3.46847513,52.6231493 L22.3285324,3.33932266 L23.8641111,3.33932266 L27.8480253,14.4453603 L21.2135375,32.9099774 L34.4717748,32.9099774 L37.6556846,41.8095175 L18.0439454,41.8095175 L14.1548864,52.6231493 L3.46847513,52.6231493 L3.46847513,52.6231493 Z" id="Fill-3"></path>
            </g>
        </g>
    </g>
</svg>
